<svg width="37" height="37" viewBox="0 0 37 37" fill="none" xmlns="http://www.w3.org/2000/svg">
<g clip-path="url(#clip0_38_29)">
<path d="M18.3074 30.8333C18.4102 30.8333 18.513 30.8076 18.6157 30.7562C18.7185 30.7048 18.7956 30.6534 18.847 30.602L31.4887 17.9603C31.797 17.652 32.0221 17.3051 32.1639 16.9197C32.3057 16.5343 32.3761 16.1489 32.3751 15.7635C32.3751 15.3524 32.3047 14.9603 32.1639 14.5872C32.0231 14.2141 31.798 13.8867 31.4887 13.6051L24.9366 7.05304C24.6539 6.74471 24.3261 6.52014 23.953 6.37934C23.5799 6.23853 23.1888 6.16761 22.7798 6.16659C22.3944 6.16659 22.009 6.2375 21.6235 6.37934C21.2381 6.52117 20.8912 6.74574 20.5829 7.05304L20.159 7.477L23.011 10.3676C23.3965 10.7273 23.6791 11.1385 23.8589 11.601C24.0388 12.0635 24.1287 12.5517 24.1287 13.0655C24.1287 14.1447 23.7629 15.0507 23.0311 15.7835C22.2993 16.5163 21.3933 16.8822 20.3131 16.8812C19.7992 16.8812 19.3049 16.7912 18.83 16.6114C18.3552 16.4315 17.9374 16.1617 17.5767 15.802L14.6845 12.9499L7.9397 19.6947C7.86262 19.7718 7.80506 19.8556 7.76703 19.946C7.72901 20.0364 7.70948 20.1325 7.70845 20.2343C7.70845 20.4398 7.78553 20.6264 7.9397 20.7939C8.09387 20.9614 8.27373 21.0447 8.47928 21.0437C8.58206 21.0437 8.68484 21.018 8.78762 20.9666C8.89039 20.9152 8.96748 20.8638 9.01887 20.8124L14.2605 15.5708L16.4189 17.7291L11.2157 22.9708C11.1387 23.0478 11.0811 23.1316 11.0431 23.222C11.005 23.3125 10.9855 23.4086 10.9845 23.5103C10.9845 23.7159 11.0616 23.8958 11.2157 24.0499C11.3699 24.2041 11.5498 24.2812 11.7553 24.2812C11.8581 24.2812 11.9609 24.2555 12.0637 24.2041C12.1664 24.1527 12.2435 24.1013 12.2949 24.0499L17.5366 18.8468L19.6949 21.0051L14.4918 26.2468C14.4147 26.2982 14.3571 26.3753 14.3191 26.478C14.2811 26.5808 14.2616 26.6836 14.2605 26.7864C14.2605 26.9919 14.3376 27.1718 14.4918 27.326C14.646 27.4801 14.8258 27.5572 15.0314 27.5572C15.1341 27.5572 15.2308 27.5377 15.3212 27.4986C15.4116 27.4596 15.4949 27.402 15.571 27.326L20.8126 22.1228L22.9709 24.2812L17.7293 29.5228C17.6522 29.5999 17.5946 29.6832 17.5566 29.7726C17.5186 29.862 17.4991 29.9586 17.498 30.0624C17.498 30.268 17.5818 30.4478 17.7493 30.602C17.9169 30.7562 18.1029 30.8333 18.3074 30.8333ZM18.2689 33.9166C17.3182 33.9166 16.4769 33.6021 15.7452 32.9731C15.0134 32.3441 14.5827 31.5537 14.4532 30.602C13.5796 30.4735 12.8473 30.1138 12.2564 29.5228C11.6654 28.9319 11.3057 28.1996 11.1772 27.326C10.3036 27.1975 9.57798 26.8316 9.00037 26.2283C8.42276 25.625 8.0692 24.8989 7.9397 24.0499C6.96331 23.9214 6.16678 23.4975 5.55012 22.778C4.93345 22.0586 4.62512 21.2107 4.62512 20.2343C4.62512 19.7204 4.72173 19.226 4.91495 18.7512C5.10817 18.2764 5.38413 17.8586 5.74283 17.4978L14.6845 8.59471L19.7334 13.6437C19.7848 13.7208 19.8619 13.7788 19.9647 13.8179C20.0675 13.8569 20.1703 13.8759 20.273 13.8749C20.5043 13.8749 20.697 13.8045 20.8512 13.6637C21.0053 13.5229 21.0824 13.3364 21.0824 13.1041C21.0824 13.0013 21.0629 12.8985 21.0238 12.7958C20.9848 12.693 20.9272 12.6159 20.8512 12.5645L15.3397 7.05304C15.0571 6.74471 14.7297 6.52014 14.3577 6.37934C13.9856 6.23853 13.5935 6.16761 13.1814 6.16659C12.796 6.16659 12.4105 6.2375 12.0251 6.37934C11.6397 6.52117 11.2928 6.74574 10.9845 7.05304L5.55012 12.526C5.31887 12.7572 5.12616 13.027 4.97199 13.3353C4.81783 13.6437 4.71505 13.952 4.66366 14.2603C4.61227 14.5687 4.61227 14.8837 4.66366 15.2054C4.71505 15.5271 4.81783 15.8287 4.97199 16.1103L2.73658 18.3458C2.29977 17.7548 1.97859 17.1063 1.77303 16.4002C1.56748 15.6941 1.49039 14.9808 1.54178 14.2603C1.59317 13.5399 1.77303 12.8399 2.08137 12.1606C2.3897 11.4812 2.81366 10.8707 3.35324 10.3291L8.78762 4.89471C9.40428 4.30374 10.0919 3.85409 10.8504 3.54575C11.6089 3.23742 12.3859 3.08325 13.1814 3.08325C13.9769 3.08325 14.7544 3.23742 15.5139 3.54575C16.2734 3.85409 16.9477 4.30374 17.5366 4.89471L17.9605 5.31867L18.3845 4.89471C19.0012 4.30374 19.6887 3.85409 20.4472 3.54575C21.2057 3.23742 21.9827 3.08325 22.7782 3.08325C23.5737 3.08325 24.3513 3.23742 25.1108 3.54575C25.8703 3.85409 26.5445 4.30374 27.1335 4.89471L33.647 11.4083C34.238 11.9992 34.6876 12.6801 34.996 13.451C35.3043 14.2218 35.4585 15.0055 35.4585 15.802C35.4585 16.5985 35.3043 17.376 34.996 18.1345C34.6876 18.893 34.238 19.5673 33.647 20.1572L21.0053 32.7603C20.6456 33.1201 20.2283 33.4027 19.7535 33.6083C19.2787 33.8138 18.7838 33.9166 18.2689 33.9166Z" fill="#031F6B"/>
</g>
<defs>
<clipPath id="clip0_38_29">
<rect width="37" height="37" fill="white"/>
</clipPath>
</defs>
</svg>
